<svg version="1.1" xmlns="http://www.w3.org/2000/svg" viewBox="0 0 300 289">
  <circle cx="44" cy="6" r="4" fill="#cd3731"></circle>
  <text x="44" y="11" font-size="4" font-family="system-ui" alignment-baseline="hanging" text-anchor="middle">npm</text>
  <text x="44" y="16" font-size="3" font-family="system-ui" alignment-baseline="hanging" text-anchor="middle">v5.7.1-canary.13</text>
  <circle cx="56" cy="6" r="4" fill="#248ebd"></circle>
  <text x="56" y="11" font-size="4" font-family="system-ui" alignment-baseline="hanging" text-anchor="middle">yarn</text>
  <text x="56" y="16" font-size="3" font-family="system-ui" alignment-baseline="hanging" text-anchor="middle">v1.5.1</text>
  <circle cx="68" cy="6" r="4" fill="#fbae00"></circle>
  <text x="68" y="11" font-size="4" font-family="system-ui" alignment-baseline="hanging" text-anchor="middle">pnpm</text>
  <text x="68" y="16" font-size="3" font-family="system-ui" alignment-baseline="hanging" text-anchor="middle">v1.35.1</text>
  <circle cx="80" cy="6" r="4" fill="#551a8b"></circle>
  <text x="80" y="11" font-size="4" font-family="system-ui" alignment-baseline="hanging" text-anchor="middle">npmci</text>
  <text x="80" y="16" font-size="3" font-family="system-ui" alignment-baseline="hanging" text-anchor="middle">v5.7.1-canary.13</text>
  <text x="40" y="28" fill="#888" font-size="5" font-family="system-ui" text-anchor="middle">0</text>
  <text x="40" y="276" fill="#888" font-size="5" font-family="system-ui" text-anchor="middle" alignment-baseline="hanging">0</text>
  <line x1="90" y1="31" x2="90" y2="275" stroke-width="0.5" stroke="#cacaca"></line>
  <text x="90" y="28" fill="#888" font-size="5" font-family="system-ui" text-anchor="middle">14</text>
  <text x="90" y="276" fill="#888" font-size="5" font-family="system-ui" text-anchor="middle" alignment-baseline="hanging">14</text>
  <line x1="140" y1="31" x2="140" y2="275" stroke-width="0.5" stroke="#cacaca"></line>
  <text x="140" y="28" fill="#888" font-size="5" font-family="system-ui" text-anchor="middle">28</text>
  <text x="140" y="276" fill="#888" font-size="5" font-family="system-ui" text-anchor="middle" alignment-baseline="hanging">28</text>
  <line x1="190" y1="31" x2="190" y2="275" stroke-width="0.5" stroke="#cacaca"></line>
  <text x="190" y="28" fill="#888" font-size="5" font-family="system-ui" text-anchor="middle">42</text>
  <text x="190" y="276" fill="#888" font-size="5" font-family="system-ui" text-anchor="middle" alignment-baseline="hanging">42</text>
  <line x1="240" y1="31" x2="240" y2="275" stroke-width="0.5" stroke="#cacaca"></line>
  <text x="240" y="28" fill="#888" font-size="5" font-family="system-ui" text-anchor="middle">56</text>
  <text x="240" y="276" fill="#888" font-size="5" font-family="system-ui" text-anchor="middle" alignment-baseline="hanging">56</text>
  <line x1="290" y1="31" x2="290" y2="275" stroke-width="0.5" stroke="#cacaca"></line>
  <text x="290" y="28" fill="#888" font-size="5" font-family="system-ui" text-anchor="middle">70</text>
  <text x="290" y="276" fill="#888" font-size="5" font-family="system-ui" text-anchor="middle" alignment-baseline="hanging">70</text>
  <text x="290" y="20" font-size="4" font-family="system-ui" font-style="italic" text-anchor="end" fill="#888">Installation time in seconds (lower is better)</text>
  <rect x="40" y="35" width="84" height="6" fill="#cd3731" rx="1" ry="1"></rect>
  <rect x="40" y="41.5" width="108" height="6" fill="#248ebd" rx="1" ry="1"></rect>
  <rect x="40" y="48" width="242" height="6" fill="#fbae00" rx="1" ry="1"></rect>
  <rect x="40" y="54.5" width="1" height="6" fill="#551a8b" rx="1" ry="1"></rect>
  <rect x="40" y="65" width="25" height="6" fill="#cd3731" rx="1" ry="1"></rect>
  <rect x="40" y="71.5" width="4" height="6" fill="#248ebd" rx="1" ry="1"></rect>
  <rect x="40" y="78" width="6" height="6" fill="#fbae00" rx="1" ry="1"></rect>
  <rect x="40" y="84.5" width="51" height="6" fill="#551a8b" rx="1" ry="1"></rect>
  <rect x="40" y="95" width="50" height="6" fill="#cd3731" rx="1" ry="1"></rect>
  <rect x="40" y="101.5" width="41" height="6" fill="#248ebd" rx="1" ry="1"></rect>
  <rect x="40" y="108" width="50" height="6" fill="#fbae00" rx="1" ry="1"></rect>
  <rect x="40" y="114.5" width="31" height="6" fill="#551a8b" rx="1" ry="1"></rect>
  <rect x="40" y="125" width="80" height="6" fill="#cd3731" rx="1" ry="1"></rect>
  <rect x="40" y="131.5" width="80" height="6" fill="#248ebd" rx="1" ry="1"></rect>
  <rect x="40" y="138" width="72" height="6" fill="#fbae00" rx="1" ry="1"></rect>
  <rect x="40" y="144.5" width="1" height="6" fill="#551a8b" rx="1" ry="1"></rect>
  <rect x="40" y="155" width="58" height="6" fill="#cd3731" rx="1" ry="1"></rect>
  <rect x="40" y="161.5" width="90" height="6" fill="#248ebd" rx="1" ry="1"></rect>
  <rect x="40" y="168" width="178" height="6" fill="#fbae00" rx="1" ry="1"></rect>
  <rect x="40" y="174.5" width="38" height="6" fill="#551a8b" rx="1" ry="1"></rect>
  <rect x="40" y="185" width="25" height="6" fill="#cd3731" rx="1" ry="1"></rect>
  <rect x="40" y="191.5" width="38" height="6" fill="#248ebd" rx="1" ry="1"></rect>
  <rect x="40" y="198" width="50" height="6" fill="#fbae00" rx="1" ry="1"></rect>
  <rect x="40" y="204.5" width="1" height="6" fill="#551a8b" rx="1" ry="1"></rect>
  <rect x="40" y="215" width="25" height="6" fill="#cd3731" rx="1" ry="1"></rect>
  <rect x="40" y="221.5" width="4" height="6" fill="#248ebd" rx="1" ry="1"></rect>
  <rect x="40" y="228" width="5" height="6" fill="#fbae00" rx="1" ry="1"></rect>
  <rect x="40" y="234.5" width="60" height="6" fill="#551a8b" rx="1" ry="1"></rect>
  <rect x="40" y="245" width="23" height="6" fill="#cd3731" rx="1" ry="1"></rect>
  <rect x="40" y="251.5" width="86" height="6" fill="#248ebd" rx="1" ry="1"></rect>
  <rect x="40" y="258" width="167" height="6" fill="#fbae00" rx="1" ry="1"></rect>
  <rect x="40" y="264.5" width="1" height="6" fill="#551a8b" rx="1" ry="1"></rect>
  <line x1="40" y1="31" x2="40" y2="275" stroke-width="1" stroke="#cacaca"></line>
  <text x="38" y="44.5" font-size="4" font-family="system-ui" alignment-baseline="middle" text-anchor="end">clean install</text>
  <text x="38" y="70.5" font-size="4" font-family="system-ui" alignment-baseline="middle" text-anchor="end">with cache</text>
  <text x="38" y="74.5" font-size="4" font-family="system-ui" alignment-baseline="middle" text-anchor="end">with lockfile</text>
  <text x="38" y="78.5" font-size="4" font-family="system-ui" alignment-baseline="middle" text-anchor="end">with node_modules</text>
  <text x="38" y="102.5" font-size="4" font-family="system-ui" alignment-baseline="middle" text-anchor="end">with cache</text>
  <text x="38" y="106.5" font-size="4" font-family="system-ui" alignment-baseline="middle" text-anchor="end">with lockfile</text>
  <text x="38" y="134.5" font-size="4" font-family="system-ui" alignment-baseline="middle" text-anchor="end">with cache</text>
  <text x="38" y="164.5" font-size="4" font-family="system-ui" alignment-baseline="middle" text-anchor="end">with lockfile</text>
  <text x="38" y="192.5" font-size="4" font-family="system-ui" alignment-baseline="middle" text-anchor="end">with cache</text>
  <text x="38" y="196.5" font-size="4" font-family="system-ui" alignment-baseline="middle" text-anchor="end">with node_modules</text>
  <text x="38" y="222.5" font-size="4" font-family="system-ui" alignment-baseline="middle" text-anchor="end">with node_modules</text>
  <text x="38" y="226.5" font-size="4" font-family="system-ui" alignment-baseline="middle" text-anchor="end">with lockfile</text>
  <text x="38" y="254.5" font-size="4" font-family="system-ui" alignment-baseline="middle" text-anchor="end">with node_modules</text>
  <text x="290" y="287" font-size="4" font-family="system-ui" text-anchor="end" fill="#888">Tests were run using Node.js v8.9.4</text>
</svg>
